<svg id="Layer_1" enable-background="new 0 0 512 512" viewBox="0 0 512 512" xmlns="http://www.w3.org/2000/svg"><g><path d="m344.463 215.377 62.446 108.136 62.446-108.147c3.215-5.78 6.664-11.689 10.007-17.405 15.798-27.039 32.138-54.984 32.138-85.11 0-57.687-46.914-104.612-104.591-104.612-57.666 0-104.591 46.925-104.591 104.612 0 29.839 16.245 57.719 31.947 84.684 3.406 5.856 6.941 11.913 10.198 17.842zm62.446-160.373c31.894 0 57.847 25.953 57.847 57.847 0 31.883-25.954 57.826-57.847 57.826s-57.847-25.943-57.847-57.826c0-31.893 25.953-57.847 57.847-57.847z"/><path d="m477.275 235.699-5.78 10.028-8.879 15.361c20.919 23.601 24.836 58.401 8.655 86.419-13.754 23.824-38.791 37.152-64.5 37.152-12.604 0-25.368-3.204-37.035-9.943-35.481-20.492-47.67-66.044-27.188-101.525 2.513-4.343 5.419-8.378 8.676-12.072l-8.889-15.404-5.802-10.049c-7.207 6.792-13.402 14.637-18.491 23.409-13.69 23.718-17.321 51.364-10.231 77.829.298 1.107.607 2.193.937 3.279.415 1.363.852 2.715 1.32 4.045.266.798.554 1.586.851 2.374.341.894.681 1.778 1.043 2.661.277.692.565 1.373.862 2.044 1.033 2.385 2.14 4.716 3.354 7.005.298.585.617 1.171.937 1.757.468.841.937 1.671 1.426 2.491.383.671.788 1.331 1.203 1.98.884 1.448 1.82 2.874 2.789 4.269.415.607.851 1.214 1.288 1.81.277.394.564.788.873 1.182.49.671 1 1.341 1.532 2.001.117.16.245.319.373.479.298.373.586.735.884 1.086.692.862 1.405 1.703 2.15 2.534.309.351.618.703.937 1.054.149.192.32.373.511.564.617.692 1.266 1.384 1.926 2.054.384.394.767.788 1.161 1.182.702.713 1.426 1.405 2.15 2.087.138.149.277.277.415.404.767.713 1.544 1.416 2.332 2.108.713.628 1.437 1.235 2.161 1.842.33.277.66.553 1.001.809.639.532 1.288 1.033 1.937 1.533.075.064.139.117.213.17.351.266.703.532 1.054.788.665.496 1.345.971 2.021 1.451l-17.734 30.816-6.526-3.769-31.51 54.547c-2.502 4.322-3.162 9.389-1.852 14.265 1.309 4.876 4.418 8.942 8.75 11.433v.011c8.985 5.184 20.535 2.086 25.741-6.92l31.468-54.494-6.494-3.758 17.914-31.116c2.459 1.036 4.944 1.971 7.454 2.81.522.181 1.044.351 1.576.511 2.47.777 4.96 1.458 7.462 2.044.948.224 1.895.426 2.842.618.916.192 1.842.362 2.757.522.075.021.139.032.203.032.777.138 1.554.266 2.342.383.202.032.405.064.596.085.894.128 1.799.245 2.704.351h.01c.863.096 1.714.192 2.566.266.245.021.49.043.734.064.831.064 1.672.128 2.502.17.969.064 1.938.096 2.906.128.969.032 1.937.043 2.906.043 8.9 0 17.863-1.171 26.699-3.534 26.475-7.09 48.596-24.069 62.308-47.798 23.9-41.38 15.671-93.83-18.501-125.958z"/><path d="m64.702 171.625-55.686-32.16 189.829-109.605 55.675 32.16zm79.404 154.454c0 3.045-1.618 5.855-4.258 7.367-1.309.766-2.778 1.139-4.248 1.139-1.469 0-2.938-.373-4.258-1.139l-70.877-40.91c-2.64-1.522-4.258-4.333-4.258-7.377v-98.779l-55.707-32.182v219.199l189.839 109.594v-219.198l-46.233-26.688zm183.761-105.528c-2.65-4.727-5.418-9.474-8.314-14.446-1.022-1.757-2.055-3.524-3.077-5.291l-109.115 62.978v219.189l90.177-52.077.554-.319 21.994-37.887c-13.584-14.275-23.462-31.808-28.711-51.385-8.271-30.85-4.035-63.085 11.933-90.763 6.622-11.412 14.861-21.472 24.559-29.999zm-254.638 59.699 53.855 31.095v-99.907c0-3.034 1.629-5.844 4.258-7.367l153.986-88.9c-.021-.766-.032-1.544-.032-2.321 0-10.624 1.373-20.939 3.949-30.776l-17.714-10.23-198.302 114.514zm214.143-146.597-143.265 82.704v1.097l54.739 31.596 109.243-63.053c-9.113-16.661-17.097-33.896-20.717-52.344z"/></g></svg>